# xmcd CD database file
#
# Track frame offsets:
#	150
#	56901
#	82096
#	129190
#	169471
#	225158
#
# Disc length: 3933 seconds
#
# Revision: 1
# Processed by: cddbd v1.5.2PL0 Copyright (c) Steve Scherf et al.
# Submitted via: CDex 1.51
#
DISCID=470f5b06
DTITLE=Mike Chance - Heilung in seinen Flügeln
DYEAR=2012
DGENRE=Proklamation
TTITLE0=Die Natur Gottes 
TTITLE1=Durch meine Wunden bist Du geheilt
TTITLE2=Mein Kind, deine Sünden sind vergeben
TTITLE3=Ich bin gekommen, um alle Werke des Teufels zu zerstören
TTITLE4=Das Festmahl der Heilung
TTITLE5=Ich sandte mein Wort und heilte dich 
EXTD=YEAR: 2012
EXTT0=
EXTT1=
EXTT2=
EXTT3=
EXTT4=
EXTT5=
PLAYORDER=
